<svg width="164" height="164" viewBox="0 0 164 164" fill="none" xmlns="http://www.w3.org/2000/svg">
<rect width="164" height="164" fill="#0F064C" fill-opacity="0.45"/>
<g clip-path="url(#clip0)">
<path d="M110.855 107H53.1936C52.1013 107 51.0537 106.566 50.2813 105.794C49.5089 105.021 49.075 103.974 49.075 102.881V61.6947C49.075 60.6023 49.5089 59.5547 50.2813 58.7823C51.0537 58.0099 52.1013 57.576 53.1936 57.576H110.855C111.947 57.576 112.995 58.0099 113.767 58.7823C114.54 59.5547 114.974 60.6023 114.974 61.6947V102.881C114.974 103.974 114.54 105.021 113.767 105.794C112.995 106.566 111.947 107 110.855 107Z" fill="#EAEAEA"/>
<path d="M57.3123 107H53.1936C52.1013 107 51.0537 106.566 50.2813 105.794C49.5089 105.021 49.075 103.974 49.075 102.881V61.6947C49.075 61.1538 49.1815 60.6182 49.3885 60.1185C49.5954 59.6188 49.8988 59.1648 50.2813 58.7823C50.6637 58.3999 51.1178 58.0965 51.6175 57.8895C52.1172 57.6826 52.6528 57.576 53.1936 57.576C53.7345 57.576 54.2701 57.6826 54.7698 57.8895C55.2695 58.0965 55.7235 58.3999 56.106 58.7823C56.4884 59.1648 56.7918 59.6188 56.9988 60.1185C57.2058 60.6182 57.3123 61.1538 57.3123 61.6947V107Z" fill="#898FEB"/>
<path d="M106.737 107H110.855C111.948 107 112.995 106.566 113.768 105.794C114.54 105.021 114.974 103.974 114.974 102.881V61.6947C114.974 60.6023 114.54 59.5547 113.768 58.7823C112.995 58.0099 111.948 57.576 110.855 57.576C109.763 57.576 108.715 58.0099 107.943 58.7823C107.171 59.5547 106.737 60.6023 106.737 61.6947V107Z" fill="#6970D8"/>
<path d="M113.215 65.0719C113.658 64.7622 114.036 64.3681 114.328 63.9123C114.619 63.4564 114.817 62.9476 114.912 62.415C115.007 61.8823 114.995 61.3363 114.879 60.808C114.762 60.2797 114.543 59.7795 114.233 59.336C113.924 58.8925 113.53 58.5144 113.074 58.2231C112.618 57.9319 112.109 57.7333 111.576 57.6387C111.044 57.5441 110.498 57.5554 109.969 57.6718C109.441 57.7883 108.941 58.0076 108.497 58.3173L82.0281 77.5886L82.0253 77.5899L82.0226 77.5886L55.5532 58.3173C54.6575 57.6918 53.55 57.4477 52.4743 57.6387C51.3986 57.8298 50.4428 58.4403 49.8173 59.336C49.1917 60.2317 48.9476 61.3393 49.1387 62.415C49.3297 63.4907 49.9403 64.4464 50.836 65.0719L50.7261 64.9909L82.0253 87.7795L113.215 65.0719ZM113.326 64.9909L82.0253 87.7795L113.326 64.9909Z" fill="#898FEB"/>
<path d="M110.855 57.576C109.978 57.576 109.164 57.8506 108.497 58.3174L82.0273 77.5886L82.0246 77.59L82.0218 77.5886L55.5525 58.3174C54.8613 57.8336 54.0376 57.5747 53.1939 57.576H110.855Z" fill="#EFEFEF"/>
<path d="M57.3142 71.563L50.3729 64.6875L50.3702 64.693C50.5157 64.8303 50.6708 64.9566 50.8356 65.0719L50.7258 64.9909L57.3156 69.7892L57.3142 71.6124" fill="#6970D8"/>
<path d="M77.4504 91.3367L57.3129 107L57.3143 71.3914L77.4463 91.3312" fill="#E3E3E3"/>
<path d="M77.4497 91.3366L82.0242 87.7795L57.3135 69.7892V71.3913L77.4456 91.3311L77.4497 91.3366Z" fill="url(#paint0_linear)"/>
<path d="M93.0912 107H106.736V69.7879L82.0243 87.7796L77.4457 91.3312L93.0912 107Z" fill="url(#paint1_linear)"/>
</g>
<defs>
<linearGradient id="paint0_linear" x1="57.3135" y1="80.5636" x2="82.0242" y2="80.5636" gradientUnits="userSpaceOnUse">
<stop stop-color="#C8C8C8"/>
<stop offset="1" stop-color="#CDCDCD"/>
</linearGradient>
<linearGradient id="paint1_linear" x1="77.4457" y1="88.3933" x2="106.736" y2="88.3933" gradientUnits="userSpaceOnUse">
<stop stop-color="#D9D9D9"/>
<stop offset="1" stop-color="#E2E2E2"/>
</linearGradient>
<clipPath id="clip0">
<rect width="89.67" height="50" fill="white" transform="translate(37 57)"/>
</clipPath>
</defs>
</svg>
