<svg width="164" height="164" viewBox="0 0 164 164" fill="none" xmlns="http://www.w3.org/2000/svg">
<rect width="164" height="164" fill="#0F064C" fill-opacity="0.45"/>
<g clip-path="url(#clip0)">
<path d="M22.0139 70.5087H26.1979V79.8194H35.0224V70.5087H39.2118V93.3636H35.0224V83.8574H26.1979V93.3636H22.0139V70.5087ZM52.4669 85.9194C52.4669 87.8326 50.9107 89.3895 49.001 89.3895C47.0906 89.3895 45.5353 87.8326 45.5353 85.9194V76.0796H41.5673V85.9194C41.5673 90.0245 44.9022 93.3636 49.001 93.3636C53.0988 93.3636 56.4335 90.0245 56.4335 85.9194V76.0796H52.4669V85.9194ZM67.5105 76.1949C65.5422 76.1949 64.1683 76.7669 62.8415 78.0715V70.5087H58.8607V84.5245C58.8607 89.7707 62.6477 93.3636 66.9023 93.3636C71.6322 93.3636 75.7764 89.7066 75.7764 84.7795C75.7764 79.9147 71.9549 76.1949 67.5105 76.1949ZM67.6094 89.6749C64.912 89.6749 62.8492 87.4185 62.8492 84.7795C62.8492 82.1399 64.912 79.8828 67.6094 79.8828C69.895 79.8828 71.9589 82.1399 71.9589 84.7795C71.9589 87.4185 69.895 89.6749 67.6094 89.6749ZM82.4624 77.1994C82.4624 75.1951 83.7958 74.5596 85.2555 74.5596C86.4306 74.5596 87.9857 75.4498 89.0006 76.531L91.6028 73.479C90.3023 71.7306 87.6682 70.5221 85.5096 70.5221C81.1921 70.5221 78.0813 73.0339 78.0813 77.1994C78.0813 84.925 87.5728 82.4761 87.5728 86.8011C87.5728 88.135 86.2717 89.3125 84.7807 89.3125C82.4308 89.3125 81.6686 88.1678 80.5898 86.9593L77.7007 89.9475C79.5428 92.2051 81.8275 93.3502 84.5578 93.3502C88.6523 93.3502 91.9537 90.8067 91.9537 86.8319C91.9537 78.248 82.4624 80.919 82.4624 77.1994ZM102.434 75.9709C98.1794 75.9709 94.3919 79.5617 94.3919 84.809V98.861H98.3725V91.2623C99.6996 92.5659 101.073 93.1389 103.042 93.1389C107.486 93.1389 111.308 89.4195 111.308 84.5548C111.308 79.6269 107.163 75.9709 102.434 75.9709ZM103.141 89.4515C100.444 89.4515 98.3807 87.192 98.3807 84.5548C98.3807 81.9153 100.444 79.6581 103.141 79.6581C105.426 79.6581 107.49 81.9153 107.49 84.5548C107.49 87.192 105.426 89.4515 103.141 89.4515ZM140.61 89.6749C138.262 89.6749 137.595 88.658 137.595 87.0995V80.2006H141.245V76.7038H137.595V72.0933L133.565 73.9051V87.958C133.565 91.5511 136.04 93.3636 139.435 93.3636C139.943 93.3636 140.642 93.3307 141.023 93.2366L142.008 89.6125C141.563 89.6432 141.055 89.6749 140.61 89.6749Z" fill="#898FEB"/>
<path d="M130.112 80.404C129.349 79.0889 128.276 78.0346 126.934 77.2409C125.931 76.6562 124.891 76.285 123.719 76.1256V71.9471C124.891 71.4487 125.618 70.3456 125.618 69.0587C125.618 67.3046 124.214 65.8832 122.464 65.8832C120.713 65.8832 119.284 67.3046 119.284 69.0587C119.284 70.3456 119.969 71.4487 121.141 71.9471V76.1275C120.203 76.2632 119.231 76.5559 118.343 77.0057C116.53 75.6263 110.584 71.101 107.106 68.458C107.188 68.1601 107.252 67.853 107.252 67.5291C107.252 65.5863 105.681 64.0116 103.74 64.0116C101.8 64.0116 100.23 65.5863 100.23 67.5291C100.23 69.4716 101.802 71.0468 103.742 71.0468C104.404 71.0468 105.016 70.8529 105.544 70.5341L106.278 71.0919L116.365 78.371C115.832 78.8614 115.335 79.4192 114.938 80.045C114.133 81.3209 113.641 82.7247 113.641 84.256V84.5755C113.641 85.6504 113.845 86.6652 114.192 87.6186C114.498 88.451 114.945 89.2078 115.499 89.8921L112.151 93.2533C111.666 93.0724 111.139 93.0353 110.634 93.1464C110.128 93.2574 109.665 93.512 109.3 93.8796C109.047 94.1315 108.847 94.4312 108.711 94.7612C108.574 95.0912 108.505 95.4451 108.506 95.8022C108.506 96.5283 108.789 97.2107 109.301 97.7241C109.553 97.9775 109.852 98.1783 110.181 98.3151C110.511 98.4519 110.864 98.5218 111.221 98.5208C111.577 98.5218 111.931 98.4518 112.26 98.3151C112.59 98.1783 112.889 97.9774 113.14 97.7241C113.393 97.4722 113.593 97.1726 113.73 96.8428C113.866 96.5129 113.936 96.1592 113.935 95.8022C113.935 95.5212 113.891 95.247 113.81 94.9864L117.27 91.5203C117.744 91.8485 118.257 92.1248 118.807 92.3631C119.894 92.8335 121.093 93.1202 122.405 93.1202H122.646C124.096 93.1202 125.465 92.7788 126.751 92.0807C128.107 91.3429 129.168 90.3339 129.97 89.0458C130.775 87.7542 131.219 86.3272 131.219 84.7572V84.6788C131.219 83.1344 130.862 81.7094 130.112 80.404ZM125.885 87.6749C124.946 88.7202 123.866 89.3642 122.646 89.3642H122.445C121.747 89.3642 121.066 89.1712 120.398 88.8202C119.646 88.4338 119.074 87.8827 118.606 87.1847C118.122 86.4997 117.86 85.7518 117.86 84.9588V84.718C117.86 83.9384 118.009 83.1991 118.385 82.501C118.788 81.7378 119.331 81.1444 120.054 80.6725C120.764 80.204 121.522 79.9741 122.366 79.9741H122.445C123.21 79.9741 123.935 80.1253 124.619 80.4758C125.315 80.8495 125.885 81.3601 126.326 82.0317C126.755 82.7036 127.01 83.4283 127.092 84.2177C127.105 84.3818 127.111 84.5499 127.111 84.7105C127.111 85.7819 126.702 86.7742 125.885 87.6749Z" fill="#898FEB"/>
</g>
<defs>
<clipPath id="clip0">
<rect width="120" height="35" fill="white" transform="translate(22 64)"/>
</clipPath>
</defs>
</svg>
